<svg xmlns="http://www.w3.org/2000/svg" width="52.215" height="50" viewBox="0 0 52.215 50">
  <g id="Group_20" data-name="Group 20" transform="translate(-333 -10)">
    <rect id="Rectangle_5" data-name="Rectangle 5" width="50" height="50" transform="translate(333 10)" fill="none"/>
    <g id="Group_14" data-name="Group 14" transform="matrix(-0.53, 0.848, -0.848, -0.53, 427.139, 39.29)">
      <path id="Path_956" data-name="Path 956" d="M8,0A8,8,0,0,1,8,16c-4.418,0-9.683-3.582-9.683-8,0-2.284,2.233-5.215,4-6.883C3.52-.034,5.866,0,8,0Z" transform="translate(21 67)" fill="#fab664"/>
      <path id="Path_955" data-name="Path 955" d="M8,0a8,8,0,0,1,8,8c0,2.284-.118,5.164-1.884,6.832C12.912,15.983,10.134,16,8,16A8,8,0,0,1,8,0Z" transform="translate(33 51)" fill="#82cac2"/>
      <path id="Path_957" data-name="Path 957" d="M6.285-1.187c1.29,0,5.386.5,6.737,1.187C15.367,1.172,16,4.872,16,8c0,1.538.649,2.45-1.351,4.45S10.881,16,8,16c-2.081,0-4.6.3-6.255-1.222C.375,13.533,0,10.337,0,8,0,3.582,1.867-1.187,6.285-1.187Z" transform="translate(17 40)" fill="#f9515a"/>
    </g>
  </g>
</svg>
