<svg xmlns="http://www.w3.org/2000/svg" width="393.162" height="441.12" viewBox="0 0 393.162 441.12">
  <g id="Group_19" data-name="Group 19" transform="translate(0 -683.854)">
    <path id="Path_959" data-name="Path 959" d="M53.813,0c14.176,0,33.806,2.64,43.52,11.132,10.436,9.122,10.293,24.755,10.293,39.331,0,5.658-3.108,13-4.976,18.18C98.966,78.859,90.013,80.695,81.123,86.4c-8.065,5.178-15.823,14.525-27.311,14.525-5.877,0-9.863-1.368-15.659-2.325-7.837-1.294-17.166-2.851-22.905-7.913C4.945,81.6,0,64.955,0,50.463c0-10.786,5.407-19.3,11.632-27.605C21.29,9.972,35.594,0,53.813,0Z" transform="matrix(0.375, 0.927, -0.927, 0.375, 110.647, 987.378)" fill="#fab664"/>
    <path id="Path_958" data-name="Path 958" d="M79.609,0c20.972,0,40.043,11.072,54.414,24.468,15.439,14.391,25.2,32.147,25.2,55.141,0,8.925-4.6,20.512-7.361,28.68-10.583,31.293-37.206,50.929-72.248,50.929-8.695,0-14.591-2.159-23.165-3.669-11.594-2.041-25.4-4.5-33.885-12.484C7.316,128.726,0,102.472,0,79.609,0,62.594,8,49.163,17.208,36.06,31.5,15.731,52.657,0,79.609,0Z" transform="translate(178.782 706.175)" fill="#82cac2"/>
    <path id="Path_949" data-name="Path 949" d="M214.42,0C270.917,0,322.291,20.822,361,46.016c24.247,15.779,51.6,14.394,51.6,14.394v184.82S308.818,299.438,214.42,299.438c-23.423,0-39.307-4.06-62.4-6.9-31.234-3.838-81.969-7.883-132.574-34.168V72.285S141.815,0,214.42,0Z" transform="translate(-19.442 766.728)" fill="#f9515a"/>
    <path id="Path_952" data-name="Path 952" d="M39.15,0C49.464,0,63.744,2.048,70.812,8.636,78.4,15.713,78.3,27.842,78.3,39.15c0,4.389-2.261,10.087-3.62,14.1C72,61.18,65.487,62.6,59.019,67.031,53.151,71.048,47.508,78.3,39.15,78.3c-4.276,0-7.176-1.062-11.392-1.8-5.7-1-12.489-2.211-16.664-6.139C3.6,63.3,0,50.393,0,39.15c0-8.368,3.934-14.973,8.463-21.416C15.489,7.736,25.9,0,39.15,0Z" transform="matrix(0.375, 0.927, -0.927, 0.375, 128.598, 683.854)" fill="#fab664"/>
    <path id="Path_948" data-name="Path 948" d="M71.962,119.472s-25.477-3.86-34.6-7.9C12.116,100.388,0,79.913,0,62.083,0,48.814,13.248,38.34,28.5,28.121,40.188,20.29,71.962,7.17,71.962,7.17Z" transform="translate(321.038 963)" fill="#82cac2"/>
  </g>
  <style>
          @keyframes wobble {
            0% {
              fill: var(--start-color);
            }
            33% {
              fill: var(--middle-color);
            }
            66% {
              fill: var(--end-color);
            }
            100% {
              fill: var(--start-color);
            }
          }
        </style>
</svg>
