<svg id="Laag_1" data-name="Laag 1" xmlns="http://www.w3.org/2000/svg" viewBox="0 0 250 250"><defs><style>.cls-1,.cls-2,.cls-3,.cls-4{fill:none;stroke-miterlimit:10;stroke-width:11.51px;}.cls-1{stroke:#82c9c1;}.cls-2{stroke:#f9525a;}.cls-3{stroke:#fab664;}.cls-4{stroke:#594c51;}.cls-5{fill:#f1edbf;}</style></defs><path class="cls-1" d="M169.87,117.84v99.67l-41.59,3.64V121.48l-31.85,2.79V84.11l105.2-9.21v40.16Z"/><path class="cls-1" d="M168.72,116.69v99.67L127.13,220V120.33l-31.85,2.79V83l105.2-9.21v40.16Z"/><path class="cls-1" d="M167.57,115.54v99.67L126,218.85V119.18L94.12,122V81.81L199.33,72.6v40.16Z"/><path class="cls-1" d="M166.42,114.39v99.67l-41.59,3.64V118L93,120.81V80.66l105.21-9.21v40.16Z"/><path class="cls-1" d="M165.27,113.24v99.67l-41.59,3.64V116.88l-31.86,2.78V79.51L197,70.3v40.16Z"/><path class="cls-1" d="M164.12,112.09v99.67l-41.59,3.64V115.72l-31.86,2.79V78.36l105.21-9.21v40.16Z"/><path class="cls-1" d="M163,110.94v99.67l-41.59,3.64V114.57l-31.86,2.79V77.21L194.73,68v40.16Z"/><path class="cls-1" d="M161.82,109.79v99.67l-41.59,3.64V113.42l-31.86,2.79V76.05l105.2-9.2V107Z"/><path class="cls-1" d="M160.67,108.63v99.68L119.08,212V112.27l-31.86,2.79V74.9l105.2-9.2v40.16Z"/><path class="cls-1" d="M159.52,107.48v99.68l-41.59,3.63V111.12l-31.86,2.79V73.75l105.2-9.2V104.7Z"/><path class="cls-1" d="M158.37,106.33V206l-41.59,3.63V110l-31.86,2.79V72.6l105.2-9.2v40.15Z"/><path class="cls-1" d="M157.22,105.18v99.67l-41.59,3.64V108.82l-31.86,2.79V71.45L189,62.25V102.4Z"/><path class="cls-1" d="M156.07,104V203.7l-41.59,3.64V107.67l-31.86,2.79V70.3l105.2-9.2v40.15Z"/><path class="cls-1" d="M154.91,102.88v99.67l-41.58,3.64V106.52l-31.86,2.79V69.15L186.67,60V100.1Z"/><path class="cls-1" d="M153.76,101.73V201.4L112.17,205V105.37l-31.85,2.79V68l105.2-9.2V99Z"/><path class="cls-1" d="M152.61,100.58v99.67L111,203.89V104.22L79.17,107V66.85l105.2-9.21V97.8Z"/><path class="cls-1" d="M151.46,99.43V199.1l-41.59,3.64V103.07L78,105.86V65.7l105.2-9.21V96.65Z"/><path class="cls-1" d="M150.31,98.28V198l-41.59,3.64V101.92L76.86,104.7V64.55l105.21-9.21V95.5Z"/><path class="cls-1" d="M149.16,97.13V196.8l-41.59,3.64V100.77l-31.86,2.78V63.4l105.21-9.21V94.35Z"/><path class="cls-1" d="M148,96v99.67l-41.59,3.64V99.62L74.56,102.4V62.25L179.77,53V93.2Z"/><path class="cls-1" d="M146.86,94.83V194.5l-41.59,3.64V98.46l-31.86,2.79V61.1l105.21-9.21V92.05Z"/><path class="cls-1" d="M145.71,93.68v99.67L104.12,197V97.31L72.26,100.1V60l105.2-9.21V90.9Z"/><path class="cls-1" d="M144.56,92.52V192.2L103,195.84V96.16L71.11,99V58.79l105.2-9.2V89.75Z"/><path class="cls-1" d="M143.41,91.37v99.68l-41.59,3.63V95L70,97.8V57.64l105.2-9.2V88.6Z"/><path class="cls-1" d="M142.26,90.22V189.9l-41.59,3.63V93.86L68.81,96.65V56.49L174,47.29V87.44Z"/><path class="cls-1" d="M141.11,89.07v99.67l-41.59,3.64V92.71L67.66,95.5V55.34l105.2-9.2V86.29Z"/><path class="cls-1" d="M140,87.92v99.67l-41.59,3.64V91.56L66.51,94.35V54.19L171.71,45V85.14Z"/><path class="cls-1" d="M138.8,86.77v99.67l-41.58,3.64V90.41L65.36,93.2V53l105.2-9.2V84Z"/><path class="cls-1" d="M137.65,85.62v99.67l-41.59,3.64V89.26L64.21,92.05V51.89l105.2-9.2V82.84Z"/><path class="cls-1" d="M136.5,84.47v99.67l-41.59,3.64V88.11L63.06,90.9V50.74l105.2-9.21V81.69Z"/><path class="cls-1" d="M135.35,83.32V183l-41.59,3.64V87L61.91,89.75V49.59l105.2-9.21V80.54Z"/><path class="cls-1" d="M134.2,82.17v99.67l-41.59,3.64V85.81L60.75,88.59V48.44L166,39.23V79.39Z"/><path class="cls-1" d="M133.05,81v99.67l-41.59,3.64V84.66L59.6,87.44V47.29l105.21-9.21V78.24Z"/><path class="cls-1" d="M131.9,79.87v99.67l-41.59,3.64V83.51L58.45,86.29V46.14l105.21-9.21V77.09Z"/><path class="cls-1" d="M130.75,78.72v99.67L89.16,182V82.35L57.3,85.14V45l105.21-9.21V75.94Z"/><path class="cls-1" d="M129.6,77.57v99.67L88,180.88V81.2L56.15,84V43.84l105.21-9.21V74.79Z"/><path class="cls-1" d="M128.45,76.41v99.68l-41.59,3.64V80.05L55,82.84V42.68l105.2-9.2V73.64Z"/><path class="cls-1" d="M127.3,75.26v99.68l-41.59,3.64V78.9L53.85,81.69V41.53l105.2-9.2V72.49Z"/><path class="cls-1" d="M126.15,74.11v99.68l-41.59,3.63V77.75L52.7,80.54V40.38l105.2-9.2V71.33Z"/><path class="cls-1" d="M125,73v99.68l-41.59,3.63V76.6L51.55,79.39V39.23L156.75,30V70.18Z"/><path class="cls-1" d="M123.85,71.81v99.67l-41.59,3.64V75.45L50.4,78.24V38.08l105.2-9.2V69Z"/><path class="cls-2" d="M158.37,106.33V206l-41.59,3.63V110l-31.86,2.79V72.6l105.2-9.2v40.15Z"/><path class="cls-2" d="M157.22,105.18v99.67l-41.59,3.64V108.82l-31.86,2.79V71.45L189,62.25V102.4Z"/><path class="cls-2" d="M156.07,104V203.7l-41.59,3.64V107.67l-31.86,2.79V70.3l105.2-9.2v40.15Z"/><path class="cls-2" d="M154.91,102.88v99.67l-41.58,3.64V106.52l-31.86,2.79V69.15L186.67,60V100.1Z"/><path class="cls-2" d="M153.76,101.73V201.4L112.17,205V105.37l-31.85,2.79V68l105.2-9.2V99Z"/><path class="cls-2" d="M152.61,100.58v99.67L111,203.89V104.22L79.17,107V66.85l105.2-9.21V97.8Z"/><path class="cls-2" d="M151.46,99.43V199.1l-41.59,3.64V103.07L78,105.86V65.7l105.2-9.21V96.65Z"/><path class="cls-2" d="M150.31,98.28V198l-41.59,3.64V101.92L76.86,104.7V64.55l105.21-9.21V95.5Z"/><path class="cls-2" d="M149.16,97.13V196.8l-41.59,3.64V100.77l-31.86,2.78V63.4l105.21-9.21V94.35Z"/><path class="cls-2" d="M148,96v99.67l-41.59,3.64V99.62L74.56,102.4V62.25L179.77,53V93.2Z"/><path class="cls-2" d="M146.86,94.83V194.5l-41.59,3.64V98.46l-31.86,2.79V61.1l105.21-9.21V92.05Z"/><path class="cls-2" d="M145.71,93.68v99.67L104.12,197V97.31L72.26,100.1V60l105.2-9.21V90.9Z"/><path class="cls-2" d="M144.56,92.52V192.2L103,195.84V96.16L71.11,99V58.79l105.2-9.2V89.75Z"/><path class="cls-2" d="M143.41,91.37v99.68l-41.59,3.63V95L70,97.8V57.64l105.2-9.2V88.6Z"/><path class="cls-2" d="M142.26,90.22V189.9l-41.59,3.63V93.86L68.81,96.65V56.49L174,47.29V87.44Z"/><path class="cls-2" d="M141.11,89.07v99.67l-41.59,3.64V92.71L67.66,95.5V55.34l105.2-9.2V86.29Z"/><path class="cls-2" d="M140,87.92v99.67l-41.59,3.64V91.56L66.51,94.35V54.19L171.71,45V85.14Z"/><path class="cls-2" d="M138.8,86.77v99.67l-41.58,3.64V90.41L65.36,93.2V53l105.2-9.2V84Z"/><path class="cls-2" d="M137.65,85.62v99.67l-41.59,3.64V89.26L64.21,92.05V51.89l105.2-9.2V82.84Z"/><path class="cls-2" d="M136.5,84.47v99.67l-41.59,3.64V88.11L63.06,90.9V50.74l105.2-9.21V81.69Z"/><path class="cls-2" d="M135.35,83.32V183l-41.59,3.64V87L61.91,89.75V49.59l105.2-9.21V80.54Z"/><path class="cls-2" d="M134.2,82.17v99.67l-41.59,3.64V85.81L60.75,88.59V48.44L166,39.23V79.39Z"/><path class="cls-2" d="M133.05,81v99.67l-41.59,3.64V84.66L59.6,87.44V47.29l105.21-9.21V78.24Z"/><path class="cls-2" d="M131.9,79.87v99.67l-41.59,3.64V83.51L58.45,86.29V46.14l105.21-9.21V77.09Z"/><path class="cls-2" d="M130.75,78.72v99.67L89.16,182V82.35L57.3,85.14V45l105.21-9.21V75.94Z"/><path class="cls-2" d="M129.6,77.57v99.67L88,180.88V81.2L56.15,84V43.84l105.21-9.21V74.79Z"/><path class="cls-2" d="M128.45,76.41v99.68l-41.59,3.64V80.05L55,82.84V42.68l105.2-9.2V73.64Z"/><path class="cls-2" d="M127.3,75.26v99.68l-41.59,3.64V78.9L53.85,81.69V41.53l105.2-9.2V72.49Z"/><path class="cls-2" d="M126.15,74.11v99.68l-41.59,3.63V77.75L52.7,80.54V40.38l105.2-9.2V71.33Z"/><path class="cls-2" d="M125,73v99.68l-41.59,3.63V76.6L51.55,79.39V39.23L156.75,30V70.18Z"/><path class="cls-2" d="M123.85,71.81v99.67l-41.59,3.64V75.45L50.4,78.24V38.08l105.2-9.2V69Z"/><path class="cls-3" d="M146.86,94.83V194.5l-41.59,3.64V98.46l-31.86,2.79V61.1l105.21-9.21V92.05Z"/><path class="cls-3" d="M145.71,93.68v99.67L104.12,197V97.31L72.26,100.1V60l105.2-9.21V90.9Z"/><path class="cls-3" d="M144.56,92.52V192.2L103,195.84V96.16L71.11,99V58.79l105.2-9.2V89.75Z"/><path class="cls-3" d="M143.41,91.37v99.68l-41.59,3.63V95L70,97.8V57.64l105.2-9.2V88.6Z"/><path class="cls-3" d="M142.26,90.22V189.9l-41.59,3.63V93.86L68.81,96.65V56.49L174,47.29V87.44Z"/><path class="cls-3" d="M141.11,89.07v99.67l-41.59,3.64V92.71L67.66,95.5V55.34l105.2-9.2V86.29Z"/><path class="cls-3" d="M140,87.92v99.67l-41.59,3.64V91.56L66.51,94.35V54.19L171.71,45V85.14Z"/><path class="cls-3" d="M138.8,86.77v99.67l-41.58,3.64V90.41L65.36,93.2V53l105.2-9.2V84Z"/><path class="cls-3" d="M137.65,85.62v99.67l-41.59,3.64V89.26L64.21,92.05V51.89l105.2-9.2V82.84Z"/><path class="cls-3" d="M136.5,84.47v99.67l-41.59,3.64V88.11L63.06,90.9V50.74l105.2-9.21V81.69Z"/><path class="cls-3" d="M135.35,83.32V183l-41.59,3.64V87L61.91,89.75V49.59l105.2-9.21V80.54Z"/><path class="cls-3" d="M134.2,82.17v99.67l-41.59,3.64V85.81L60.75,88.59V48.44L166,39.23V79.39Z"/><path class="cls-3" d="M133.05,81v99.67l-41.59,3.64V84.66L59.6,87.44V47.29l105.21-9.21V78.24Z"/><path class="cls-3" d="M131.9,79.87v99.67l-41.59,3.64V83.51L58.45,86.29V46.14l105.21-9.21V77.09Z"/><path class="cls-3" d="M130.75,78.72v99.67L89.16,182V82.35L57.3,85.14V45l105.21-9.21V75.94Z"/><path class="cls-3" d="M129.6,77.57v99.67L88,180.88V81.2L56.15,84V43.84l105.21-9.21V74.79Z"/><path class="cls-3" d="M128.45,76.41v99.68l-41.59,3.64V80.05L55,82.84V42.68l105.2-9.2V73.64Z"/><path class="cls-3" d="M127.3,75.26v99.68l-41.59,3.64V78.9L53.85,81.69V41.53l105.2-9.2V72.49Z"/><path class="cls-3" d="M126.15,74.11v99.68l-41.59,3.63V77.75L52.7,80.54V40.38l105.2-9.2V71.33Z"/><path class="cls-3" d="M125,73v99.68l-41.59,3.63V76.6L51.55,79.39V39.23L156.75,30V70.18Z"/><path class="cls-3" d="M123.85,71.81v99.67l-41.59,3.64V75.45L50.4,78.24V38.08l105.2-9.2V69Z"/><path class="cls-4" d="M135.35,83.32V183l-41.59,3.64V87L61.91,89.75V49.59l105.2-9.21V80.54Z"/><path class="cls-4" d="M134.2,82.17v99.67l-41.59,3.64V85.81L60.75,88.59V48.44L166,39.23V79.39Z"/><path class="cls-4" d="M133.05,81v99.67l-41.59,3.64V84.66L59.6,87.44V47.29l105.21-9.21V78.24Z"/><path class="cls-4" d="M131.9,79.87v99.67l-41.59,3.64V83.51L58.45,86.29V46.14l105.21-9.21V77.09Z"/><path class="cls-4" d="M130.75,78.72v99.67L89.16,182V82.35L57.3,85.14V45l105.21-9.21V75.94Z"/><path class="cls-4" d="M129.6,77.57v99.67L88,180.88V81.2L56.15,84V43.84l105.21-9.21V74.79Z"/><path class="cls-4" d="M128.45,76.41v99.68l-41.59,3.64V80.05L55,82.84V42.68l105.2-9.2V73.64Z"/><path class="cls-4" d="M127.3,75.26v99.68l-41.59,3.64V78.9L53.85,81.69V41.53l105.2-9.2V72.49Z"/><path class="cls-4" d="M126.15,74.11v99.68l-41.59,3.63V77.75L52.7,80.54V40.38l105.2-9.2V71.33Z"/><path class="cls-4" d="M125,73v99.68l-41.59,3.63V76.6L51.55,79.39V39.23L156.75,30V70.18Z"/><path class="cls-4" d="M123.85,71.81v99.67l-41.59,3.64V75.45L50.4,78.24V38.08l105.2-9.2V69Z"/><path class="cls-5" d="M123.85,71.81v99.67l-41.59,3.64V75.45L50.4,78.24V38.08l105.2-9.2V69Z"/></svg>