<svg xmlns="http://www.w3.org/2000/svg" width="1253" height="245.001" viewBox="0 0 1253 245.001">
  <path id="banner" data-name="banner" class="cls-1" d="M154-1576a78,78,0,0,1-78-78,78.619,78.619,0,0,1,.771-11.01A78,78,0,0,1,0-1743a78,78,0,0,1,78-78H574a78.009,78.009,0,0,1,70.219,44H710.78A78.01,78.01,0,0,1,781-1821h277a78.008,78.008,0,0,1,70.305,44.177,78.048,78.048,0,0,1,66.523,47.365A78.033,78.033,0,0,1,1253-1654a78,78,0,0,1-78,78H1025a78.012,78.012,0,0,1-70.7-45H881.7a78.013,78.013,0,0,1-70.7,45H480a78.018,78.018,0,0,1-71-45.66A78.019,78.019,0,0,1,338-1576Z"/>
</svg>
